<svg xmlns="http://www.w3.org/2000/svg" height="512" width="512"><rect fill="#e0fbfc" height="512" width="512" rx="64"/><path d="M169.344 35.844A9.5 9.5 0 0 0 160 45.47v117.343H45.5a9.5 9.5 0 1 0 0 19H160v151H45.5a9.5 9.5 0 1 0 0 19H160V466.5a9.5 9.5 0 1 0 19 0V351.812h151V466.5a9.5 9.5 0 1 0 19 0V351.812h117.406a9.5 9.5 0 1 0 0-19H349v-151h115.563a9.5 9.5 0 1 0 0-19H349V45.47a9.5 9.5 0 0 0-9.656-9.626A9.5 9.5 0 0 0 330 45.47v117.343H179V45.47a9.5 9.5 0 0 0-9.656-9.626zM86 35.97c-13.07 0-25.77 4.94-35.156 13.843S36 71.06 36 83.874s5.458 25.16 14.844 34.063S72.93 131.81 86 131.81s25.77-4.97 35.156-13.875S136 96.69 136 83.876s-5.458-25.16-14.844-34.063S99.07 35.97 86 35.97zm170 0c-13.07 0-25.77 4.94-35.156 13.843S206 71.06 206 83.874s5.458 25.16 14.844 34.063S242.93 131.81 256 131.81s25.77-4.97 35.156-13.875S306 96.69 306 83.876s-5.458-25.16-14.844-34.063S269.07 35.97 256 35.97zm138.844 9.218A9.5 9.5 0 0 0 388.25 61.5l22.375 22.375L389 105.5a9.502 9.502 0 1 0 13.438 13.438l21.625-21.626 22.375 22.407a9.502 9.502 0 1 0 13.437-13.44L437.5 83.876l21.625-21.625a9.5 9.5 0 1 0-13.439-13.437l-21.625 21.624-22.375-22.374a9.5 9.5 0 0 0-6.843-2.876zM86 54.968c8.137 0 16.485 3.337 22.094 8.657s8.937 12.95 8.937 20.25-3.328 14.96-8.936 20.28-13.957 8.626-22.094 8.626-16.485-3.304-22.094-8.624-8.937-12.98-8.937-20.28 3.328-14.93 8.936-20.25S77.863 54.97 86 54.97zm170 0c8.137 0 16.485 3.337 22.094 8.657s8.937 12.95 8.937 20.25-3.328 14.96-8.936 20.28-13.957 8.626-22.094 8.626-16.485-3.304-22.094-8.624-8.937-12.98-8.937-20.28 3.328-14.93 8.936-20.25S247.863 54.97 256 54.97zm-77 126.844h151v151H179v-151zm245.063 26.282c-13.07 0-25.77 4.94-35.157 13.844S374.062 243.186 374.062 256s5.458 25.16 14.844 34.063 22.087 13.875 35.156 13.875 25.77-4.972 35.157-13.875 14.842-21.25 14.842-34.063-5.457-25.16-14.843-34.063-22.088-13.843-35.158-13.843zm-197.25 9.22a9.5 9.5 0 0 0-6.625 16.31L242.563 256l-21.625 21.625a9.502 9.502 0 1 0 13.437 13.438L256 269.438l22.375 22.375a9.502 9.502 0 1 0 13.438-13.438L269.438 256l21.625-21.625a9.5 9.5 0 1 0-13.437-13.438L256 242.563l-22.375-22.375a9.5 9.5 0 0 0-6.813-2.875zm197.25 9.78c8.136 0 16.485 3.305 22.093 8.625s8.938 12.98 8.938 20.28-3.33 14.93-8.938 20.25-13.957 8.656-22.094 8.656-16.485-3.336-22.093-8.656-8.94-12.95-8.94-20.25 3.33-14.96 8.94-20.28 13.956-8.626 22.092-8.626zM256 380.156c-13.07 0-25.77 4.94-35.156 13.844S206 415.25 206 428.063s5.458 25.19 14.844 34.093S242.93 476.03 256 476.03s25.77-4.97 35.156-13.874S306 440.876 306 428.062s-5.458-25.16-14.844-34.062-22.087-13.844-35.156-13.844zm-199.188 9.22a9.5 9.5 0 0 0-6.624 16.312l22.374 22.406L50.94 449.72a9.502 9.502 0 1 0 13.437 13.436L86 441.53l22.375 22.376a9.502 9.502 0 1 0 13.438-13.437l-22.376-22.376 21.626-21.625a9.5 9.5 0 1 0-13.437-13.439L86 414.657 63.625 392.25a9.5 9.5 0 0 0-6.813-2.875zM256 399.187c8.137 0 16.485 3.304 22.094 8.625s8.937 12.948 8.937 20.25-3.328 14.96-8.936 20.28-13.957 8.626-22.094 8.626-16.485-3.306-22.094-8.626-8.937-12.98-8.937-20.28 3.328-14.93 8.936-20.252 13.957-8.625 22.094-8.625z" fill="#293241"/></svg>